<?xml version="1.0" encoding="UTF-8"?>
<!DOCTYPE svg PUBLIC "-//W3C//DTD SVG 1.1//EN" "http://www.w3.org/Graphics/SVG/1.1/DTD/svg11.dtd">
<!-- Creator: CorelDRAW 2020 (64-Bit) -->
<svg xmlns="http://www.w3.org/2000/svg" xml:space="preserve" width="1.33334in" height="1.56952in" version="1.1" style="shape-rendering:geometricPrecision; text-rendering:geometricPrecision; image-rendering:optimizeQuality; fill-rule:evenodd; clip-rule:evenodd"
viewBox="0 0 508.95 599.1"
 xmlns:xlink="http://www.w3.org/1999/xlink"
 xmlns:xodm="http://www.corel.com/coreldraw/odm/2003">
 <defs>
  <style type="text/css">
   <![CDATA[
    .fil4 {fill:gray}
    .fil1 {fill:gray;fill-rule:nonzero}
    .fil0 {fill:#C6C6C6;fill-rule:nonzero}
    .fil2 {fill:#E8E8E8;fill-rule:nonzero}
    .fil3 {fill:red;fill-rule:nonzero}
   ]]>
  </style>
 </defs>
 <g id="Layer_x0020_1">
  <metadata id="CorelCorpID_0Corel-Layer"/>
  <g id="_363632496">
   <path class="fil0" d="M459.65 396.35c-0.02,0 -0.64,0.05 -1.72,0.05 -0.41,0 -0.89,0 -1.42,-0.03 -0.86,-0.03 -1.88,-0.08 -3,-0.19 -1.19,-0.11 -2.5,-0.28 -3.91,-0.55 -5.24,-0.94 -12.78,-3.25 -18.85,-8.88 -7.15,-6.63 -10.78,-16.33 -10.78,-28.84l0 -0.03 0.2 0c0,12.45 3.6,22.12 10.71,28.72 6.04,5.6 13.51,7.9 18.74,8.84 2.71,0.48 5.1,0.67 6.87,0.73 1.92,0.06 3.1,-0.02 3.11,-0.02l0.02 0.11 0.03 0.09z"/>
  </g>
  <path class="fil1" d="M475.46 158.58l0 -68.08c0,-0.05 0.31,-4.33 -0.72,-9.99 -0.94,-5.23 -3.24,-12.7 -8.84,-18.74 -6.04,-6.51 -14.64,-10.07 -25.6,-10.64 -10.96,0.56 -19.57,4.13 -25.6,10.64 -5.6,6.04 -7.9,13.51 -8.84,18.74 -1.02,5.66 -0.72,9.95 -0.72,9.99l0 305.68 103.81 0c-1.19,-0.11 -2.5,-0.28 -3.91,-0.55 -5.24,-0.94 -12.78,-3.25 -18.85,-8.88 -7.15,-6.63 -10.78,-16.33 -10.78,-28.84l-0.03 0 0.08 -199.32z"/>
  <path class="fil2" d="M455.91 446.47l-455.91 0 0 -277.86c0,-5.49 4.44,-9.93 9.93,-9.93l436.03 0c5.49,0 9.93,4.44 9.93,9.93l0 277.86 0.02 0z"/>
  <rect class="fil1" x="174.5" y="497.94" width="109.31" height="87.45"/>
  <path class="fil0" d="M426.12 508.67l-396.3 0c-16.47,0 -29.81,-13.34 -29.81,-29.81l0 -32.39 455.93 0 0 32.39c0.02,16.47 -13.34,29.81 -29.81,29.81z"/>
  <circle class="fil3" cx="227.96" cy="477.47" r="16.09"/>
  <path class="fil1" d="M300.26 599.1l-144.57 0c-5.96,0 -10.79,-4.83 -10.79,-10.79l0 -5.85c0,-5.96 4.83,-10.79 10.79,-10.79l144.57 0c5.96,0 10.79,4.83 10.79,10.79l0 5.85c0,5.96 -4.83,10.79 -10.79,10.79z"/>
  <g id="_363649152">
   <path class="fil0" d="M405.96 426.59l-1 -336.09c0,-0.03 -0.31,-4.35 0.72,-10.03 0.94,-5.24 3.25,-12.78 8.88,-18.85 5.71,-6.16 13.72,-9.71 23.82,-10.57 -0.39,0 -0.78,-0.02 -1.17,-0.02l-347.37 0c-12.45,0 -22.12,3.6 -28.72,10.71 -5.6,6.04 -7.9,13.51 -8.84,18.74 -1.02,5.66 -0.72,9.95 -0.72,10l1 336.09 353.39 0 0 0.02z"/>
  </g>
  <path class="fil1" d="M238.79 188.39l-19.88 13.92c-1.05,0.73 -2.49,0 -2.5,-1.28l-0.23 -24.26c-0.03,-4.89 0.75,-9.74 2.33,-14.39l0.78 0.3 29.22 15.03 0.69 0.47c-2.88,3.94 -6.4,7.4 -10.4,10.21z"/>
  <path class="fil3" d="M249.14 178.15l-0.69 -0.45 -29.22 -15.03 -0.78 -0.3c0.67,-2.02 1.52,-3.97 2.5,-5.87l30.91 -60.09 31.52 16.22 -30.91 60.08c-0.97,1.89 -2.08,3.72 -3.33,5.44z"/>
  <polygon class="fil1" points="283.41,112.62 251.9,96.4 261.8,77.08 293.33,93.33 "/>
  <path class="fil1" d="M246.76 69.1l22.48 -43.7c1.58,-3.08 4.33,-5.41 7.65,-6.46 3.3,-1.06 6.88,-0.75 9.95,0.88l11.56 6.01c1.02,0.53 2.2,0.64 3.3,0.3 1.09,-0.34 2.02,-1.11 2.55,-2.13l14.8 7.62 8.02 -15.39c1.06,-2.06 1.27,-4.47 0.56,-6.68 -0.7,-2.22 -2.27,-4.05 -4.35,-5.12l-6.77 -3.49c-4.27,-2.16 -9.46,-0.47 -11.65,3.79l-5.91 11.56 -8.06 -4.21c-5.11,-2.69 -11.1,-3.21 -16.61,-1.42 -5.5,1.75 -10.09,5.61 -12.75,10.75l-22.48 43.7c-0.53,1.03 -0.63,2.22 -0.25,3.32 0.36,1.1 1.13,2.02 2.14,2.55 1.02,0.53 2.21,0.63 3.3,0.28 1.1,-0.34 2,-1.11 2.52,-2.14z"/>
  <path class="fil3" d="M300.32 13.83l3.5 1.8 18.63 9.59 0 0c2.6,1.33 3.61,4.52 2.28,7.12l-31.39 61.01 -31.53 -16.28 31.41 -60.97c1.33,-2.6 4.5,-3.61 7.1,-2.27l0 0z"/>
  <path class="fil4" d="M140.35 387.36c-0.22,-1.68 -0.11,-28.07 -0.07,-39.16 0.01,-2.15 0.02,-3.66 0.02,-4.64l0 -43.93c0,-0.71 -0.01,-1.32 -0.03,-1.93 -0.11,-5.36 -0.23,-11.19 6.58,-14 2.45,-1.01 2.71,-0.74 3.79,0.39 0.12,0.13 0.26,0.27 0.41,0.42 0,0 7.77,7.64 8.3,8.3 1.4,1.47 3.23,3.24 5.06,5.03 2.18,2.12 4.37,4.25 5.89,5.9l11.01 11c2.51,2.44 5.11,5.09 7.71,7.74 2.94,2.99 5.88,5.99 8.68,8.68 1.83,1.76 3.51,3.48 5.28,5.28l0.2 0.2c0.78,0.79 1.56,1.56 2.34,2.32 1.05,1.03 2.11,2.06 3.14,3.15 0.83,0.88 1.7,1.71 2.56,2.54 0.99,0.95 1.98,1.9 2.92,2.92 0.14,0.15 0.28,0.29 0.41,0.43l0 0c2.55,2.52 6.26,4.06 10.19,4.18 3.93,0.12 8.08,-1.17 11.5,-4.31 0.2,-0.18 0.4,-0.38 0.61,-0.59l0 0c1.13,-1.15 2.54,-2.52 4.02,-3.97l0 0c2.57,-2.51 5.34,-5.22 6.92,-6.94 0.92,-1 1.9,-1.94 2.87,-2.88 0.91,-0.88 1.83,-1.75 2.69,-2.68 3.67,-3.63 7.31,-7.3 10.96,-10.96 0.85,-0.82 1.67,-1.66 2.48,-2.5 0.98,-1.01 1.95,-2.02 2.99,-2.98 1.01,-0.93 1.94,-1.91 2.88,-2.88 0.86,-0.9 1.73,-1.8 2.66,-2.68l10.93 -10.93c1.55,-1.57 3.36,-3.34 5.22,-5.16 3.02,-2.96 6.16,-6.03 8.46,-8.49l0.07 -0.07c1.04,-1.11 1.49,-1.6 4.27,-0.31 1.33,0.62 2.42,1.38 3.33,2.34 0.91,0.96 1.62,2.1 2.19,3.49 0.96,2.34 0.8,12.09 0.7,18.07 -0.02,1.39 -0.04,2.57 -0.04,3.51l0 65.8c0,1.11 0.03,2.17 0.07,3.24 0.19,5.78 0.38,11.51 -4.73,14.69 -2.83,1.75 -4.74,1.74 -8.15,1.71 -0.32,-0 -0.65,-0 -1.36,-0l-142.55 0c-2.01,0 -3.62,-0 -5.09,-0.25 -1.49,-0.25 -2.8,-0.76 -4.16,-1.75 -1.03,-0.75 -1.95,-1.71 -2.68,-2.91 -0.72,-1.2 -1.25,-2.66 -1.48,-4.43zm131.03 -120.19c-0.9,0.2 -1.47,0.61 -1.77,1.1 -0.16,0.26 -0.25,0.54 -0.29,0.83 -0.04,0.3 -0.02,0.6 0.05,0.9 0.16,0.69 0.55,1.3 1.03,1.6 0.85,0.53 4.29,0.44 6.59,0.39 0.59,-0.02 1.1,-0.03 1.5,-0.03l8.64 0c0.52,0 1.26,0.02 2.09,0.04 2.35,0.05 5.49,0.12 6.62,-0.11 0.67,-0.14 1.15,-0.52 1.45,-1 0.17,-0.27 0.28,-0.58 0.33,-0.9 0.05,-0.32 0.05,-0.66 -0.02,-0.98 -0.13,-0.63 -0.49,-1.21 -1.07,-1.57 -0.96,-0.59 -4.11,-0.49 -6.37,-0.42 -0.65,0.02 -1.23,0.04 -1.62,0.04 -2.43,0 -0.71,-0 -2.93,-0 -1.91,-0 -3.81,-0 -5.72,0 -0.52,0 -1.22,-0.01 -2,-0.03 -2.3,-0.05 -5.35,-0.11 -6.51,0.15zm-0.02 -22.59c-0.55,0.13 -1.01,0.32 -1.35,0.6 -0.32,0.27 -0.53,0.63 -0.63,1.11 -0.38,1.89 0.62,2.69 2.17,3 1.36,0.27 3.12,0.2 4.81,0.14 0.75,-0.03 1.48,-0.06 2.12,-0.06 0.3,0 1.43,0.01 2.85,0.02 4.85,0.04 13.55,0.1 14.51,-0.09 0.67,-0.14 1.15,-0.52 1.45,-1 0.17,-0.27 0.28,-0.58 0.33,-0.9 0.05,-0.32 0.05,-0.66 -0.02,-0.98 -0.13,-0.63 -0.49,-1.21 -1.08,-1.57 -0.97,-0.59 -4.11,-0.49 -6.37,-0.43 -0.65,0.02 -1.23,0.04 -1.61,0.04l-2.08 -0.01c-4.6,-0.02 -14.28,-0.06 -15.09,0.13zm-0.01 11.28c-0.09,0.02 -0.18,0.05 -0.27,0.07 -0.59,0.18 -1.12,0.51 -1.44,0.98 -0.32,0.46 -0.45,1.07 -0.28,1.83 0.02,0.09 0.04,0.18 0.07,0.27 0.24,0.79 0.66,1.2 1.26,1.41 0.66,0.23 1.57,0.24 2.68,0.24 1.03,-0 3.45,0.01 6.58,0.03 10.45,0.05 28.87,0.14 30,-0.1 0.1,-0.02 0.2,-0.05 0.31,-0.09 0.49,-0.19 0.93,-0.56 1.22,-1.04 0.29,-0.48 0.41,-1.07 0.29,-1.68 -0.03,-0.12 -0.06,-0.25 -0.11,-0.38 -0.29,-0.77 -0.72,-1.18 -1.31,-1.39 -0.64,-0.23 -1.5,-0.26 -2.58,-0.25 -1.09,0 -3.75,-0.01 -7.17,-0.02 -10.49,-0.05 -28.11,-0.13 -29.25,0.12zm-10.28 92.46c0,1.2 1.14,2.27 2.4,3.43 0.5,0.47 1.02,0.95 1.5,1.47l25.23 25.21c0.27,0.28 0.55,0.59 0.84,0.9 1.4,1.53 2.64,2.89 4.22,2.29 0.5,-0.19 0.9,-0.46 1.18,-0.78 0.26,-0.3 0.43,-0.64 0.5,-1.01 0.06,-0.38 0.02,-0.8 -0.15,-1.24 -0.23,-0.59 -0.67,-1.21 -1.36,-1.83 -3.05,-3.08 -6.16,-6.11 -9.23,-9.17 -1.85,-1.92 -3.93,-3.96 -6,-5.98 -2.36,-2.31 -4.69,-4.59 -6.62,-6.64l-7.98 -8.02c-0.62,-0.55 -1.27,-1.01 -1.94,-1.1 -0.64,-0.08 -1.33,0.18 -2.08,1.05 -0.16,0.18 -0.29,0.4 -0.39,0.65 -0.08,0.22 -0.13,0.48 -0.13,0.77zm-75.95 -2.3c-0.84,0.26 -1.29,0.78 -1.77,1.33 -0.19,0.22 -0.39,0.45 -0.61,0.66 -0.27,0.26 -0.54,0.51 -0.81,0.77 -0.53,0.49 -1.06,0.99 -1.5,1.47l-22.92 22.98c-0.42,0.46 -0.88,0.9 -1.34,1.33 -0.34,0.32 -0.67,0.63 -0.98,0.94 -0.22,0.23 -0.49,0.49 -0.75,0.75 -0.5,0.5 -0.98,0.97 -1.49,1.55 -0.42,0.49 -0.59,1.04 -0.57,1.58 0.02,0.45 0.18,0.9 0.44,1.28 0.26,0.38 0.62,0.7 1.04,0.91 0.52,0.25 1.13,0.32 1.77,0.12 0.24,-0.08 1.35,-1.09 2.72,-2.42 2.48,-2.4 5.75,-5.75 6.45,-6.49 2.32,-2.32 6.9,-7.42 9.21,-9.16 0.4,-0.38 0.79,-0.8 1.19,-1.21 0.35,-0.36 0.7,-0.73 1.07,-1.1l11.47 -11.47c0.4,-0.46 0.56,-0.99 0.54,-1.51 -0.02,-0.45 -0.17,-0.89 -0.42,-1.27 -0.25,-0.38 -0.6,-0.7 -1.01,-0.91 -0.5,-0.25 -1.1,-0.32 -1.73,-0.13zm84.73 -39.05l-0.08 0.12 0.34 0.21 -0.06 0.1 -0.34 -0.2 0.17 0.37 -0.22 0.1c-0.15,0.07 -0.22,0.1 -0.25,0.12 -0.02,0.02 -0.06,0.06 -0.13,0.14 -0.05,0.05 -0.1,0.12 -0.21,0.23 -0.09,0.1 -0.17,0.18 -0.24,0.25 -0.17,0.16 -0.26,0.26 -0.38,0.58l-0.18 0.21c-0.32,0.18 -0.43,0.29 -0.71,0.56l-0.28 0.27c-0.08,0.08 -0.16,0.16 -0.19,0.19 -0.05,0.06 -0.1,0.11 -0.14,0.15l-0.04 0.13 -0.1 0.16 -1.29 1.25 -8.26 8.15c-0.31,0.28 -0.54,0.52 -0.77,0.76l0 0c-0.25,0.26 -0.49,0.51 -0.83,0.81 -0.33,0.29 -0.66,0.63 -0.99,0.97 -0.19,0.2 -0.39,0.4 -0.59,0.59 -1.64,1.6 -3.26,3.25 -4.88,4.9 -2.11,2.15 -4.23,4.31 -6.42,6.39l-6.4 6.47c-0.26,0.26 -0.53,0.54 -0.81,0.82 -2.03,2.07 -4.07,4.15 -6.69,5 -3.23,1.05 -5.8,0.67 -8,-0.43 -2.17,-1.09 -3.96,-2.86 -5.65,-4.64l-9.74 -9.7c-0.32,-0.37 -0.7,-0.73 -1.07,-1.1 -0.19,-0.19 -0.38,-0.38 -0.57,-0.57 -0.14,-0.14 -0.25,-0.24 -0.37,-0.33 -0.15,-0.12 -0.29,-0.25 -0.47,-0.43 -0.14,-0.15 -0.23,-0.26 -0.32,-0.37 -0.11,-0.13 -0.2,-0.24 -0.41,-0.43l-12.89 -12.86c-0.38,-0.33 -0.7,-0.66 -1.04,-1.01 -0.21,-0.21 -0.43,-0.43 -0.67,-0.66 -1.43,-1.37 -3.15,-3.14 -4.91,-4.95 -2.23,-2.29 -4.51,-4.64 -6.28,-6.25 -0.24,-0.22 -0.38,-0.39 -0.53,-0.56 -0.1,-0.12 -0.2,-0.24 -0.34,-0.37l-6.5 -6.41c-0.15,-0.16 -0.24,-0.27 -0.33,-0.38 -0.11,-0.13 -0.21,-0.25 -0.4,-0.43 -2.3,-2.1 -5.96,-5.86 -8.79,-8.77 -0.9,-0.93 -1.72,-1.77 -2.38,-2.44l-0.67 -0.68 22.65 -0 0 3.61c0,3.05 0,6.1 -0.01,9.15 -0.01,0.98 0.14,1.1 0.48,1.4 0.13,0.11 0.28,0.24 0.47,0.43l3.91 3.88 0 -74.92 88.3 0 0.07 11.58 4.76 0c0.21,-1.82 0.14,-4.91 0.07,-7.52 -0.03,-1.15 -0.05,-2.21 -0.05,-2.96 0,-0.35 0.02,-0.77 0.04,-1.21 0.07,-1.33 0.14,-2.83 -0.39,-3.62 -0.77,-1.13 -1.68,-1.13 -3.59,-1.13l-86.34 0 0 0c-0.3,0 -0.99,-0 -1.63,-0.01 -3.44,-0.02 -5.04,-0.03 -5.67,1.02 -0.59,0.98 -0.55,2.96 -0.48,6.65 0.03,1.53 0.07,3.33 0.07,5.34l0 43.45 -16.63 0c-1.36,0 -2.81,-0.04 -4.25,-0.08 -8.11,-0.23 -15.91,-0.44 -20.52,7.06 -2.42,3.94 -2.4,6.58 -2.36,11.42 0,0.74 0.01,1.52 0.01,2.02l0 80.8c0,0.8 -0.02,1.73 -0.03,2.64 -0.07,4.33 -0.13,8.05 1.75,11.45 0.93,1.69 2.16,3.25 3.67,4.55 1.38,1.18 3,2.13 4.86,2.75 3.13,1.04 7.75,0.94 11.87,0.84 1.17,-0.03 2.29,-0.05 3.24,-0.05 6.62,0 13.83,0.03 21.05,0.06 14.52,0.06 29.07,0.13 43.52,-0.08 7.01,-0.1 14.1,-0.06 21.18,-0.02 3.71,0.02 7.42,0.04 11.11,0.04l32.28 0 0 -0c1.13,0 2.35,0.03 3.56,0.06 7.99,0.18 15.39,0.34 20.07,-8.15 1.89,-3.42 1.82,-7.22 1.75,-11.6 -0.01,-0.86 -0.03,-1.75 -0.03,-2.66l0 -80.62 -0 0c0,-0.4 0,-1.16 0.01,-1.88 0.03,-4.96 0.05,-7.77 -2.43,-11.66 -4.72,-7.42 -12.34,-7.2 -20.48,-6.97 -1.48,0.04 -2.98,0.09 -4.4,0.09l-15.65 0 0.03 17.67c0.56,-0.55 1.11,-1.11 1.66,-1.67 0.78,-0.79 1.56,-1.59 2.39,-2.39 0.12,-0.12 0.22,-0.2 0.32,-0.28 0.28,-0.23 0.43,-0.37 0.45,-1.02l-0.02 -7.46 17 0.06 -0.67 0.68c-1.34,1.35 -2.69,2.7 -4.05,4.05 -2.16,2.14 -4.32,4.29 -6.45,6.51 -0.36,0.37 -0.74,0.74 -1.13,1.1 -0.52,0.49 -1.03,0.98 -1.51,1.52 -0.72,0.82 -2.17,2.23 -3.69,3.71 -1.58,1.53 -3.22,3.13 -4.14,4.16l-0.04 0.03c-0.18,0.16 -0.38,0.35 -0.55,0.54 -0.14,0.15 -0.26,0.31 -0.35,0.47l-0.2 0.17c-0.19,0.08 -0.39,0.23 -0.59,0.41 -0.26,0.25 -0.49,0.55 -0.67,0.81l-0.03 0.04 -0.3 -0.26z"/>
 </g>
</svg>
